  0
SECTION
  2
HEADER
  9
$ACADVER
  1
AC1009
  9
$FILLMODE
 70
 0
  9
$SPLFRAME
 70
 1
  9
$EXTMIN
 10
0
 20
0
 30
0.0
  9
$EXTMAX
 10
1058.33
 20
1058.33
 30
0.0
  0
ENDSEC
  0
SECTION
  2
TABLES
  0
TABLE
  2
LAYER
 70
1
  0
LAYER
  2
0
 70
     0
 62
     7
  6
CONTINUOUS
  0
ENDTAB
  0
ENDSEC
  0
SECTION
  2
ENTITIES
  0
LINE
  8
0
 62
     0
 10
0.0950846
 20
104.327
 30
0.0
 11
133.445
 21
104.327
 31
0.0
  0
LINE
  8
0
 62
     0
 10
133.445
 20
104.327
 30
0.0
 11
133.445
 21
0.141938
 31
0.0
  0
LINE
  8
0
 62
     0
 10
133.445
 20
0.141938
 30
0.0
 11
0.0950846
 21
0.141938
 31
0.0
  0
LINE
  8
0
 62
     0
 10
0.0950846
 20
0.141938
 30
0.0
 11
0.0950846
 21
104.327
 31
0.0
  0
LINE
  8
0
 62
     0
 10
109.441
 20
6.85849
 30
0.0
 11
122.964
 21
3.23564
 31
0.0
  0
LINE
  8
0
 62
     0
 10
122.964
 20
3.23564
 30
0.0
 11
126.588
 21
16.7583
 31
0.0
  0
LINE
  8
0
 62
     0
 10
126.588
 20
16.7583
 30
0.0
 11
113.064
 21
20.3812
 31
0.0
  0
LINE
  8
0
 62
     0
 10
113.064
 20
20.3812
 30
0.0
 11
109.441
 21
6.85849
 31
0.0
  0
LINE
  8
0
 62
     0
 10
88.3447
 20
21.7923
 30
0.0
 11
102.344
 21
21.7923
 31
0.0
  0
LINE
  8
0
 62
     0
 10
102.344
 20
21.7923
 30
0.0
 11
102.344
 21
7.79279
 31
0.0
  0
LINE
  8
0
 62
     0
 10
102.344
 20
7.79279
 30
0.0
 11
88.3447
 21
7.79279
 31
0.0
  0
LINE
  8
0
 62
     0
 10
88.3447
 20
7.79279
 30
0.0
 11
88.3447
 21
21.7923
 31
0.0
  0
LINE
  8
0
 62
     0
 10
50.2447
 20
23.6981
 30
0.0
 11
64.244
 21
23.6981
 31
0.0
  0
LINE
  8
0
 62
     0
 10
64.244
 20
23.6981
 30
0.0
 11
64.244
 21
9.69726
 31
0.0
  0
LINE
  8
0
 62
     0
 10
64.244
 20
9.69726
 30
0.0
 11
50.2447
 21
9.69726
 31
0.0
  0
LINE
  8
0
 62
     0
 10
50.2447
 20
9.69726
 30
0.0
 11
50.2447
 21
23.6981
 31
0.0
  0
LINE
  8
0
 62
     0
 10
69.2947
 20
23.6981
 30
0.0
 11
83.294
 21
23.6981
 31
0.0
  0
LINE
  8
0
 62
     0
 10
83.294
 20
23.6981
 30
0.0
 11
83.294
 21
9.69726
 31
0.0
  0
LINE
  8
0
 62
     0
 10
83.294
 20
9.69726
 30
0.0
 11
69.2947
 21
9.69726
 31
0.0
  0
LINE
  8
0
 62
     0
 10
69.2947
 20
9.69726
 30
0.0
 11
69.2947
 21
23.6981
 31
0.0
  0
LINE
  8
0
 62
     0
 10
2.61965
 20
33.2231
 30
0.0
 11
16.6192
 21
33.2231
 31
0.0
  0
LINE
  8
0
 62
     0
 10
16.6192
 20
33.2231
 30
0.0
 11
16.6192
 21
19.2223
 31
0.0
  0
LINE
  8
0
 62
     0
 10
16.6192
 20
19.2223
 30
0.0
 11
2.61965
 21
19.2223
 31
0.0
  0
LINE
  8
0
 62
     0
 10
2.61965
 20
19.2223
 30
0.0
 11
2.61965
 21
33.2231
 31
0.0
  0
LINE
  8
0
 62
     0
 10
21.6697
 20
35.1276
 30
0.0
 11
35.669
 21
35.1276
 31
0.0
  0
LINE
  8
0
 62
     0
 10
35.669
 20
35.1276
 30
0.0
 11
35.669
 21
21.1281
 31
0.0
  0
LINE
  8
0
 62
     0
 10
35.669
 20
21.1281
 30
0.0
 11
21.6697
 21
21.1281
 31
0.0
  0
LINE
  8
0
 62
     0
 10
21.6697
 20
21.1281
 30
0.0
 11
21.6697
 21
35.1276
 31
0.0
  0
LINE
  8
0
 62
     0
 10
97.8697
 20
40.8421
 30
0.0
 11
111.869
 21
40.8421
 31
0.0
  0
LINE
  8
0
 62
     0
 10
111.869
 20
40.8421
 30
0.0
 11
111.869
 21
26.8428
 31
0.0
  0
LINE
  8
0
 62
     0
 10
111.869
 20
26.8428
 30
0.0
 11
97.8697
 21
26.8428
 31
0.0
  0
LINE
  8
0
 62
     0
 10
97.8697
 20
26.8428
 30
0.0
 11
97.8697
 21
40.8421
 31
0.0
  0
LINE
  8
0
 62
     0
 10
40.7197
 20
42.7482
 30
0.0
 11
54.719
 21
42.7482
 31
0.0
  0
LINE
  8
0
 62
     0
 10
54.719
 20
42.7482
 30
0.0
 11
54.719
 21
28.7473
 31
0.0
  0
LINE
  8
0
 62
     0
 10
54.719
 20
28.7473
 30
0.0
 11
40.7197
 21
28.7473
 31
0.0
  0
LINE
  8
0
 62
     0
 10
40.7197
 20
28.7473
 30
0.0
 11
40.7197
 21
42.7482
 31
0.0
  0
LINE
  8
0
 62
     0
 10
78.8197
 20
42.7482
 30
0.0
 11
92.819
 21
42.7482
 31
0.0
  0
LINE
  8
0
 62
     0
 10
92.819
 20
42.7482
 30
0.0
 11
92.819
 21
28.7473
 31
0.0
  0
LINE
  8
0
 62
     0
 10
92.819
 20
28.7473
 30
0.0
 11
78.8197
 21
28.7473
 31
0.0
  0
LINE
  8
0
 62
     0
 10
78.8197
 20
28.7473
 30
0.0
 11
78.8197
 21
42.7482
 31
0.0
  0
LINE
  8
0
 62
     0
 10
59.7697
 20
44.6525
 30
0.0
 11
73.769
 21
44.6525
 31
0.0
  0
LINE
  8
0
 62
     0
 10
73.769
 20
44.6525
 30
0.0
 11
73.769
 21
30.6531
 31
0.0
  0
LINE
  8
0
 62
     0
 10
73.769
 20
30.6531
 30
0.0
 11
59.7697
 21
30.6531
 31
0.0
  0
LINE
  8
0
 62
     0
 10
59.7697
 20
30.6531
 30
0.0
 11
59.7697
 21
44.6525
 31
0.0
  0
LINE
  8
0
 62
     0
 10
116.92
 20
50.3671
 30
0.0
 11
130.919
 21
50.3671
 31
0.0
  0
LINE
  8
0
 62
     0
 10
130.919
 20
50.3671
 30
0.0
 11
130.919
 21
36.3679
 31
0.0
  0
LINE
  8
0
 62
     0
 10
130.919
 20
36.3679
 30
0.0
 11
116.92
 21
36.3679
 31
0.0
  0
LINE
  8
0
 62
     0
 10
116.92
 20
36.3679
 30
0.0
 11
116.92
 21
50.3671
 31
0.0
  0
LINE
  8
0
 62
     0
 10
2.61965
 20
52.2732
 30
0.0
 11
16.6192
 21
52.2732
 31
0.0
  0
LINE
  8
0
 62
     0
 10
16.6192
 20
52.2732
 30
0.0
 11
16.6192
 21
38.2722
 31
0.0
  0
LINE
  8
0
 62
     0
 10
16.6192
 20
38.2722
 30
0.0
 11
2.61965
 21
38.2722
 31
0.0
  0
LINE
  8
0
 62
     0
 10
2.61965
 20
38.2722
 30
0.0
 11
2.61965
 21
52.2732
 31
0.0
  0
LINE
  8
0
 62
     0
 10
21.6697
 20
54.1775
 30
0.0
 11
35.669
 21
54.1775
 31
0.0
  0
LINE
  8
0
 62
     0
 10
35.669
 20
54.1775
 30
0.0
 11
35.669
 21
40.1782
 31
0.0
  0
LINE
  8
0
 62
     0
 10
35.669
 20
40.1782
 30
0.0
 11
21.6697
 21
40.1782
 31
0.0
  0
LINE
  8
0
 62
     0
 10
21.6697
 20
40.1782
 30
0.0
 11
21.6697
 21
54.1775
 31
0.0
  0
LINE
  8
0
 62
     0
 10
97.8697
 20
59.8921
 30
0.0
 11
111.869
 21
59.8921
 31
0.0
  0
LINE
  8
0
 62
     0
 10
111.869
 20
59.8921
 30
0.0
 11
111.869
 21
45.8929
 31
0.0
  0
LINE
  8
0
 62
     0
 10
111.869
 20
45.8929
 30
0.0
 11
97.8697
 21
45.8929
 31
0.0
  0
LINE
  8
0
 62
     0
 10
97.8697
 20
45.8929
 30
0.0
 11
97.8697
 21
59.8921
 31
0.0
  0
LINE
  8
0
 62
     0
 10
40.7197
 20
61.7982
 30
0.0
 11
54.719
 21
61.7982
 31
0.0
  0
LINE
  8
0
 62
     0
 10
54.719
 20
61.7982
 30
0.0
 11
54.719
 21
47.7972
 31
0.0
  0
LINE
  8
0
 62
     0
 10
54.719
 20
47.7972
 30
0.0
 11
40.7197
 21
47.7972
 31
0.0
  0
LINE
  8
0
 62
     0
 10
40.7197
 20
47.7972
 30
0.0
 11
40.7197
 21
61.7982
 31
0.0
  0
LINE
  8
0
 62
     0
 10
78.8197
 20
61.7982
 30
0.0
 11
92.819
 21
61.7982
 31
0.0
  0
LINE
  8
0
 62
     0
 10
92.819
 20
61.7982
 30
0.0
 11
92.819
 21
47.7972
 31
0.0
  0
LINE
  8
0
 62
     0
 10
92.819
 20
47.7972
 30
0.0
 11
78.8197
 21
47.7972
 31
0.0
  0
LINE
  8
0
 62
     0
 10
78.8197
 20
47.7972
 30
0.0
 11
78.8197
 21
61.7982
 31
0.0
  0
LINE
  8
0
 62
     0
 10
59.7697
 20
63.7025
 30
0.0
 11
73.769
 21
63.7025
 31
0.0
  0
LINE
  8
0
 62
     0
 10
73.769
 20
63.7025
 30
0.0
 11
73.769
 21
49.7032
 31
0.0
  0
LINE
  8
0
 62
     0
 10
73.769
 20
49.7032
 30
0.0
 11
59.7697
 21
49.7032
 31
0.0
  0
LINE
  8
0
 62
     0
 10
59.7697
 20
49.7032
 30
0.0
 11
59.7697
 21
63.7025
 31
0.0
  0
LINE
  8
0
 62
     0
 10
2.61965
 20
71.3232
 30
0.0
 11
16.6192
 21
71.3232
 31
0.0
  0
LINE
  8
0
 62
     0
 10
16.6192
 20
71.3232
 30
0.0
 11
16.6192
 21
57.3222
 31
0.0
  0
LINE
  8
0
 62
     0
 10
16.6192
 20
57.3222
 30
0.0
 11
2.61965
 21
57.3222
 31
0.0
  0
LINE
  8
0
 62
     0
 10
2.61965
 20
57.3222
 30
0.0
 11
2.61965
 21
71.3232
 31
0.0
  0
LINE
  8
0
 62
     0
 10
21.6697
 20
73.2275
 30
0.0
 11
35.669
 21
73.2275
 31
0.0
  0
LINE
  8
0
 62
     0
 10
35.669
 20
73.2275
 30
0.0
 11
35.669
 21
59.2282
 31
0.0
  0
LINE
  8
0
 62
     0
 10
35.669
 20
59.2282
 30
0.0
 11
21.6697
 21
59.2282
 31
0.0
  0
LINE
  8
0
 62
     0
 10
21.6697
 20
59.2282
 30
0.0
 11
21.6697
 21
73.2275
 31
0.0
  0
LINE
  8
0
 62
     0
 10
97.8697
 20
78.9421
 30
0.0
 11
111.869
 21
78.9421
 31
0.0
  0
LINE
  8
0
 62
     0
 10
111.869
 20
78.9421
 30
0.0
 11
111.869
 21
64.9429
 31
0.0
  0
LINE
  8
0
 62
     0
 10
111.869
 20
64.9429
 30
0.0
 11
97.8697
 21
64.9429
 31
0.0
  0
LINE
  8
0
 62
     0
 10
97.8697
 20
64.9429
 30
0.0
 11
97.8697
 21
78.9421
 31
0.0
  0
LINE
  8
0
 62
     0
 10
40.7197
 20
80.8482
 30
0.0
 11
54.719
 21
80.8482
 31
0.0
  0
LINE
  8
0
 62
     0
 10
54.719
 20
80.8482
 30
0.0
 11
54.719
 21
66.8472
 31
0.0
  0
LINE
  8
0
 62
     0
 10
54.719
 20
66.8472
 30
0.0
 11
40.7197
 21
66.8472
 31
0.0
  0
LINE
  8
0
 62
     0
 10
40.7197
 20
66.8472
 30
0.0
 11
40.7197
 21
80.8482
 31
0.0
  0
LINE
  8
0
 62
     0
 10
78.8197
 20
80.8482
 30
0.0
 11
92.819
 21
80.8482
 31
0.0
  0
LINE
  8
0
 62
     0
 10
92.819
 20
80.8482
 30
0.0
 11
92.819
 21
66.8472
 31
0.0
  0
LINE
  8
0
 62
     0
 10
92.819
 20
66.8472
 30
0.0
 11
78.8197
 21
66.8472
 31
0.0
  0
LINE
  8
0
 62
     0
 10
78.8197
 20
66.8472
 30
0.0
 11
78.8197
 21
80.8482
 31
0.0
  0
LINE
  8
0
 62
     0
 10
59.7697
 20
82.7525
 30
0.0
 11
73.769
 21
82.7525
 31
0.0
  0
LINE
  8
0
 62
     0
 10
73.769
 20
82.7525
 30
0.0
 11
73.769
 21
68.7532
 31
0.0
  0
LINE
  8
0
 62
     0
 10
73.769
 20
68.7532
 30
0.0
 11
59.7697
 21
68.7532
 31
0.0
  0
LINE
  8
0
 62
     0
 10
59.7697
 20
68.7532
 30
0.0
 11
59.7697
 21
82.7525
 31
0.0
  0
LINE
  8
0
 62
     0
 10
2.61965
 20
90.3732
 30
0.0
 11
16.6192
 21
90.3732
 31
0.0
  0
LINE
  8
0
 62
     0
 10
16.6192
 20
90.3732
 30
0.0
 11
16.6192
 21
76.3722
 31
0.0
  0
LINE
  8
0
 62
     0
 10
16.6192
 20
76.3722
 30
0.0
 11
2.61965
 21
76.3722
 31
0.0
  0
LINE
  8
0
 62
     0
 10
2.61965
 20
76.3722
 30
0.0
 11
2.61965
 21
90.3732
 31
0.0
  0
LINE
  8
0
 62
     0
 10
21.6697
 20
92.2775
 30
0.0
 11
35.669
 21
92.2775
 31
0.0
  0
LINE
  8
0
 62
     0
 10
35.669
 20
92.2775
 30
0.0
 11
35.669
 21
78.2782
 31
0.0
  0
LINE
  8
0
 62
     0
 10
35.669
 20
78.2782
 30
0.0
 11
21.6697
 21
78.2782
 31
0.0
  0
LINE
  8
0
 62
     0
 10
21.6697
 20
78.2782
 30
0.0
 11
21.6697
 21
92.2775
 31
0.0
  0
LINE
  8
0
 62
     0
 10
97.8697
 20
97.9921
 30
0.0
 11
111.869
 21
97.9921
 31
0.0
  0
LINE
  8
0
 62
     0
 10
111.869
 20
97.9921
 30
0.0
 11
111.869
 21
83.9929
 31
0.0
  0
LINE
  8
0
 62
     0
 10
111.869
 20
83.9929
 30
0.0
 11
97.8697
 21
83.9929
 31
0.0
  0
LINE
  8
0
 62
     0
 10
97.8697
 20
83.9929
 30
0.0
 11
97.8697
 21
97.9921
 31
0.0
  0
LINE
  8
0
 62
     0
 10
40.7197
 20
99.8982
 30
0.0
 11
54.719
 21
99.8982
 31
0.0
  0
LINE
  8
0
 62
     0
 10
54.719
 20
99.8982
 30
0.0
 11
54.719
 21
85.8972
 31
0.0
  0
LINE
  8
0
 62
     0
 10
54.719
 20
85.8972
 30
0.0
 11
40.7197
 21
85.8972
 31
0.0
  0
LINE
  8
0
 62
     0
 10
40.7197
 20
85.8972
 30
0.0
 11
40.7197
 21
99.8982
 31
0.0
  0
LINE
  8
0
 62
     0
 10
78.8197
 20
99.8982
 30
0.0
 11
92.819
 21
99.8982
 31
0.0
  0
LINE
  8
0
 62
     0
 10
92.819
 20
99.8982
 30
0.0
 11
92.819
 21
85.8972
 31
0.0
  0
LINE
  8
0
 62
     0
 10
92.819
 20
85.8972
 30
0.0
 11
78.8197
 21
85.8972
 31
0.0
  0
LINE
  8
0
 62
     0
 10
78.8197
 20
85.8972
 30
0.0
 11
78.8197
 21
99.8982
 31
0.0
  0
LINE
  8
0
 62
     0
 10
59.7697
 20
101.802
 30
0.0
 11
73.769
 21
101.802
 31
0.0
  0
LINE
  8
0
 62
     0
 10
73.769
 20
101.802
 30
0.0
 11
73.769
 21
87.8032
 31
0.0
  0
LINE
  8
0
 62
     0
 10
73.769
 20
87.8032
 30
0.0
 11
59.7697
 21
87.8032
 31
0.0
  0
LINE
  8
0
 62
     0
 10
59.7697
 20
87.8032
 30
0.0
 11
59.7697
 21
101.802
 31
0.0
  0
ENDSEC
  0
EOF
