  0
SECTION
  2
HEADER
  9
$ACADVER
  1
AC1009
  9
$FILLMODE
 70
 0
  9
$SPLFRAME
 70
 1
  9
$EXTMIN
 10
0
 20
0
 30
0.0
  9
$EXTMAX
 10
1058.33
 20
1058.33
 30
0.0
  0
ENDSEC
  0
SECTION
  2
TABLES
  0
TABLE
  2
LAYER
 70
1
  0
LAYER
  2
0
 70
     0
 62
     7
  6
CONTINUOUS
  0
ENDTAB
  0
ENDSEC
  0
SECTION
  2
ENTITIES
  0
LINE
  8
0
 62
     0
 10
0.0950846
 20
124.435
 30
0.0
 11
152.091
 21
124.435
 31
0.0
  0
LINE
  8
0
 62
     0
 10
152.091
 20
124.435
 30
0.0
 11
152.091
 21
0.159852
 31
0.0
  0
LINE
  8
0
 62
     0
 10
152.091
 20
0.159852
 30
0.0
 11
0.0950846
 21
0.159852
 31
0.0
  0
LINE
  8
0
 62
     0
 10
0.0950846
 20
0.159852
 30
0.0
 11
0.0950846
 21
124.435
 31
0.0
  0
LINE
  8
0
 62
     0
 10
136.148
 20
36.0606
 30
0.0
 11
135.321
 21
36.4642
 31
0.0
  0
LINE
  8
0
 62
     0
 10
135.321
 20
36.4642
 30
0.0
 11
133.875
 21
33.4987
 31
0.0
  0
LINE
  8
0
 62
     0
 10
133.875
 20
33.4987
 30
0.0
 11
134.702
 21
33.095
 31
0.0
  0
LINE
  8
0
 62
     0
 10
134.702
 20
33.095
 30
0.0
 11
133.944
 21
31.5447
 31
0.0
  0
LINE
  8
0
 62
     0
 10
133.944
 20
31.5447
 30
0.0
 11
136.847
 21
30.128
 31
0.0
  0
LINE
  8
0
 62
     0
 10
136.847
 20
30.128
 30
0.0
 11
136.179
 21
28.7583
 31
0.0
  0
LINE
  8
0
 62
     0
 10
136.179
 20
28.7583
 30
0.0
 11
131.955
 21
30.8185
 31
0.0
  0
LINE
  8
0
 62
     0
 10
131.955
 20
30.8185
 30
0.0
 11
125.817
 21
18.2356
 31
0.0
  0
LINE
  8
0
 62
     0
 10
125.817
 20
18.2356
 30
0.0
 11
130.043
 21
16.1754
 31
0.0
  0
LINE
  8
0
 62
     0
 10
130.043
 20
16.1754
 30
0.0
 11
129.373
 21
14.8042
 31
0.0
  0
LINE
  8
0
 62
     0
 10
129.373
 20
14.8042
 30
0.0
 11
126.471
 21
16.2195
 31
0.0
  0
LINE
  8
0
 62
     0
 10
126.471
 20
16.2195
 30
0.0
 11
125.714
 21
14.6692
 31
0.0
  0
LINE
  8
0
 62
     0
 10
125.714
 20
14.6692
 30
0.0
 11
124.888
 21
15.073
 31
0.0
  0
LINE
  8
0
 62
     0
 10
124.888
 20
15.073
 30
0.0
 11
123.44
 21
12.1074
 31
0.0
  0
LINE
  8
0
 62
     0
 10
123.44
 20
12.1074
 30
0.0
 11
124.267
 21
11.7037
 31
0.0
  0
LINE
  8
0
 62
     0
 10
124.267
 20
11.7037
 30
0.0
 11
123.511
 21
10.1534
 31
0.0
  0
LINE
  8
0
 62
     0
 10
123.511
 20
10.1534
 30
0.0
 11
126.414
 21
8.73675
 31
0.0
  0
LINE
  8
0
 62
     0
 10
126.414
 20
8.73675
 30
0.0
 11
126.053
 21
7.99539
 31
0.0
  0
LINE
  8
0
 62
     0
 10
126.053
 20
7.99539
 30
0.0
 11
128.57
 21
6.76755
 31
0.0
  0
LINE
  8
0
 62
     0
 10
128.57
 20
6.76755
 30
0.0
 11
128.932
 21
7.50895
 31
0.0
  0
LINE
  8
0
 62
     0
 10
128.932
 20
7.50895
 30
0.0
 11
134.567
 21
4.76112
 31
0.0
  0
LINE
  8
0
 62
     0
 10
134.567
 20
4.76112
 30
0.0
 11
135.323
 21
6.31141
 31
0.0
  0
LINE
  8
0
 62
     0
 10
135.323
 20
6.31141
 30
0.0
 11
136.204
 21
5.88148
 31
0.0
  0
LINE
  8
0
 62
     0
 10
136.204
 20
5.88148
 30
0.0
 11
137.651
 21
8.84837
 31
0.0
  0
LINE
  8
0
 62
     0
 10
137.651
 20
8.84837
 30
0.0
 11
136.769
 21
9.27696
 31
0.0
  0
LINE
  8
0
 62
     0
 10
136.769
 20
9.27696
 30
0.0
 11
137.525
 21
10.8286
 31
0.0
  0
LINE
  8
0
 62
     0
 10
137.525
 20
10.8286
 30
0.0
 11
133.508
 21
12.7868
 31
0.0
  0
LINE
  8
0
 62
     0
 10
133.508
 20
12.7868
 30
0.0
 11
134.177
 21
14.158
 31
0.0
  0
LINE
  8
0
 62
     0
 10
134.177
 20
14.158
 30
0.0
 11
138.402
 21
12.0978
 31
0.0
  0
LINE
  8
0
 62
     0
 10
138.402
 20
12.0978
 30
0.0
 11
144.538
 21
24.6807
 31
0.0
  0
LINE
  8
0
 62
     0
 10
144.538
 20
24.6807
 30
0.0
 11
140.315
 21
26.7408
 31
0.0
  0
LINE
  8
0
 62
     0
 10
140.315
 20
26.7408
 30
0.0
 11
140.983
 21
28.112
 31
0.0
  0
LINE
  8
0
 62
     0
 10
140.983
 20
28.112
 30
0.0
 11
145
 21
26.1524
 31
0.0
  0
LINE
  8
0
 62
     0
 10
145
 20
26.1524
 30
0.0
 11
145.756
 21
27.7027
 31
0.0
  0
LINE
  8
0
 62
     0
 10
145.756
 20
27.7027
 30
0.0
 11
146.637
 21
27.2728
 31
0.0
  0
LINE
  8
0
 62
     0
 10
146.637
 20
27.2728
 30
0.0
 11
148.084
 21
30.2397
 31
0.0
  0
LINE
  8
0
 62
     0
 10
148.084
 20
30.2397
 30
0.0
 11
147.202
 21
30.6696
 31
0.0
  0
LINE
  8
0
 62
     0
 10
147.202
 20
30.6696
 30
0.0
 11
147.96
 21
32.2185
 31
0.0
  0
LINE
  8
0
 62
     0
 10
147.96
 20
32.2185
 30
0.0
 11
142.324
 21
34.9677
 31
0.0
  0
LINE
  8
0
 62
     0
 10
142.324
 20
34.9677
 30
0.0
 11
142.685
 21
35.7092
 31
0.0
  0
LINE
  8
0
 62
     0
 10
142.685
 20
35.7092
 30
0.0
 11
140.168
 21
36.9369
 31
0.0
  0
LINE
  8
0
 62
     0
 10
140.168
 20
36.9369
 30
0.0
 11
139.806
 21
36.1957
 31
0.0
  0
LINE
  8
0
 62
     0
 10
139.806
 20
36.1957
 30
0.0
 11
136.904
 21
37.6107
 31
0.0
  0
LINE
  8
0
 62
     0
 10
136.904
 20
37.6107
 30
0.0
 11
136.148
 21
36.0606
 31
0.0
  0
LINE
  8
0
 62
     0
 10
110.783
 20
30.8667
 30
0.0
 11
123.366
 21
24.7289
 31
0.0
  0
LINE
  8
0
 62
     0
 10
123.366
 20
24.7289
 30
0.0
 11
129.504
 21
37.3119
 31
0.0
  0
LINE
  8
0
 62
     0
 10
129.504
 20
37.3119
 30
0.0
 11
116.921
 21
43.4495
 31
0.0
  0
LINE
  8
0
 62
     0
 10
116.921
 20
43.4495
 30
0.0
 11
110.783
 21
30.8667
 31
0.0
  0
LINE
  8
0
 62
     0
 10
88.3447
 20
41.9005
 30
0.0
 11
102.344
 21
41.9005
 31
0.0
  0
LINE
  8
0
 62
     0
 10
102.344
 20
41.9005
 30
0.0
 11
102.344
 21
27.9011
 31
0.0
  0
LINE
  8
0
 62
     0
 10
102.344
 20
27.9011
 30
0.0
 11
88.3447
 21
27.9011
 31
0.0
  0
LINE
  8
0
 62
     0
 10
88.3447
 20
27.9011
 30
0.0
 11
88.3447
 21
41.9005
 31
0.0
  0
LINE
  8
0
 62
     0
 10
50.2447
 20
43.8065
 30
0.0
 11
64.244
 21
43.8065
 31
0.0
  0
LINE
  8
0
 62
     0
 10
64.244
 20
43.8065
 30
0.0
 11
64.244
 21
29.8056
 31
0.0
  0
LINE
  8
0
 62
     0
 10
64.244
 20
29.8056
 30
0.0
 11
50.2447
 21
29.8056
 31
0.0
  0
LINE
  8
0
 62
     0
 10
50.2447
 20
29.8056
 30
0.0
 11
50.2447
 21
43.8065
 31
0.0
  0
LINE
  8
0
 62
     0
 10
69.2947
 20
43.8065
 30
0.0
 11
83.294
 21
43.8065
 31
0.0
  0
LINE
  8
0
 62
     0
 10
83.294
 20
43.8065
 30
0.0
 11
83.294
 21
29.8056
 31
0.0
  0
LINE
  8
0
 62
     0
 10
83.294
 20
29.8056
 30
0.0
 11
69.2947
 21
29.8056
 31
0.0
  0
LINE
  8
0
 62
     0
 10
69.2947
 20
29.8056
 30
0.0
 11
69.2947
 21
43.8065
 31
0.0
  0
LINE
  8
0
 62
     0
 10
2.61965
 20
53.3315
 30
0.0
 11
16.6192
 21
53.3315
 31
0.0
  0
LINE
  8
0
 62
     0
 10
16.6192
 20
53.3315
 30
0.0
 11
16.6192
 21
39.3305
 31
0.0
  0
LINE
  8
0
 62
     0
 10
16.6192
 20
39.3305
 30
0.0
 11
2.61965
 21
39.3305
 31
0.0
  0
LINE
  8
0
 62
     0
 10
2.61965
 20
39.3305
 30
0.0
 11
2.61965
 21
53.3315
 31
0.0
  0
LINE
  8
0
 62
     0
 10
21.6697
 20
55.2358
 30
0.0
 11
35.669
 21
55.2358
 31
0.0
  0
LINE
  8
0
 62
     0
 10
35.669
 20
55.2358
 30
0.0
 11
35.669
 21
41.2365
 31
0.0
  0
LINE
  8
0
 62
     0
 10
35.669
 20
41.2365
 30
0.0
 11
21.6697
 21
41.2365
 31
0.0
  0
LINE
  8
0
 62
     0
 10
21.6697
 20
41.2365
 30
0.0
 11
21.6697
 21
55.2358
 31
0.0
  0
LINE
  8
0
 62
     0
 10
97.8697
 20
60.9505
 30
0.0
 11
111.869
 21
60.9505
 31
0.0
  0
LINE
  8
0
 62
     0
 10
111.869
 20
60.9505
 30
0.0
 11
111.869
 21
46.9512
 31
0.0
  0
LINE
  8
0
 62
     0
 10
111.869
 20
46.9512
 30
0.0
 11
97.8697
 21
46.9512
 31
0.0
  0
LINE
  8
0
 62
     0
 10
97.8697
 20
46.9512
 30
0.0
 11
97.8697
 21
60.9505
 31
0.0
  0
LINE
  8
0
 62
     0
 10
40.7197
 20
62.8565
 30
0.0
 11
54.719
 21
62.8565
 31
0.0
  0
LINE
  8
0
 62
     0
 10
54.719
 20
62.8565
 30
0.0
 11
54.719
 21
48.8555
 31
0.0
  0
LINE
  8
0
 62
     0
 10
54.719
 20
48.8555
 30
0.0
 11
40.7197
 21
48.8555
 31
0.0
  0
LINE
  8
0
 62
     0
 10
40.7197
 20
48.8555
 30
0.0
 11
40.7197
 21
62.8565
 31
0.0
  0
LINE
  8
0
 62
     0
 10
78.8197
 20
62.8565
 30
0.0
 11
92.819
 21
62.8565
 31
0.0
  0
LINE
  8
0
 62
     0
 10
92.819
 20
62.8565
 30
0.0
 11
92.819
 21
48.8555
 31
0.0
  0
LINE
  8
0
 62
     0
 10
92.819
 20
48.8555
 30
0.0
 11
78.8197
 21
48.8555
 31
0.0
  0
LINE
  8
0
 62
     0
 10
78.8197
 20
48.8555
 30
0.0
 11
78.8197
 21
62.8565
 31
0.0
  0
LINE
  8
0
 62
     0
 10
59.7697
 20
64.7608
 30
0.0
 11
73.769
 21
64.7608
 31
0.0
  0
LINE
  8
0
 62
     0
 10
73.769
 20
64.7608
 30
0.0
 11
73.769
 21
50.7615
 31
0.0
  0
LINE
  8
0
 62
     0
 10
73.769
 20
50.7615
 30
0.0
 11
59.7697
 21
50.7615
 31
0.0
  0
LINE
  8
0
 62
     0
 10
59.7697
 20
50.7615
 30
0.0
 11
59.7697
 21
64.7608
 31
0.0
  0
LINE
  8
0
 62
     0
 10
116.92
 20
70.4755
 30
0.0
 11
130.919
 21
70.4755
 31
0.0
  0
LINE
  8
0
 62
     0
 10
130.919
 20
70.4755
 30
0.0
 11
130.919
 21
56.4762
 31
0.0
  0
LINE
  8
0
 62
     0
 10
130.919
 20
56.4762
 30
0.0
 11
116.92
 21
56.4762
 31
0.0
  0
LINE
  8
0
 62
     0
 10
116.92
 20
56.4762
 30
0.0
 11
116.92
 21
70.4755
 31
0.0
  0
LINE
  8
0
 62
     0
 10
2.61965
 20
72.3815
 30
0.0
 11
16.6192
 21
72.3815
 31
0.0
  0
LINE
  8
0
 62
     0
 10
16.6192
 20
72.3815
 30
0.0
 11
16.6192
 21
58.3805
 31
0.0
  0
LINE
  8
0
 62
     0
 10
16.6192
 20
58.3805
 30
0.0
 11
2.61965
 21
58.3805
 31
0.0
  0
LINE
  8
0
 62
     0
 10
2.61965
 20
58.3805
 30
0.0
 11
2.61965
 21
72.3815
 31
0.0
  0
LINE
  8
0
 62
     0
 10
21.6697
 20
74.2858
 30
0.0
 11
35.669
 21
74.2858
 31
0.0
  0
LINE
  8
0
 62
     0
 10
35.669
 20
74.2858
 30
0.0
 11
35.669
 21
60.2865
 31
0.0
  0
LINE
  8
0
 62
     0
 10
35.669
 20
60.2865
 30
0.0
 11
21.6697
 21
60.2865
 31
0.0
  0
LINE
  8
0
 62
     0
 10
21.6697
 20
60.2865
 30
0.0
 11
21.6697
 21
74.2858
 31
0.0
  0
LINE
  8
0
 62
     0
 10
97.8697
 20
80.0005
 30
0.0
 11
111.869
 21
80.0005
 31
0.0
  0
LINE
  8
0
 62
     0
 10
111.869
 20
80.0005
 30
0.0
 11
111.869
 21
66.0012
 31
0.0
  0
LINE
  8
0
 62
     0
 10
111.869
 20
66.0012
 30
0.0
 11
97.8697
 21
66.0012
 31
0.0
  0
LINE
  8
0
 62
     0
 10
97.8697
 20
66.0012
 30
0.0
 11
97.8697
 21
80.0005
 31
0.0
  0
LINE
  8
0
 62
     0
 10
40.7197
 20
81.9065
 30
0.0
 11
54.719
 21
81.9065
 31
0.0
  0
LINE
  8
0
 62
     0
 10
54.719
 20
81.9065
 30
0.0
 11
54.719
 21
67.9055
 31
0.0
  0
LINE
  8
0
 62
     0
 10
54.719
 20
67.9055
 30
0.0
 11
40.7197
 21
67.9055
 31
0.0
  0
LINE
  8
0
 62
     0
 10
40.7197
 20
67.9055
 30
0.0
 11
40.7197
 21
81.9065
 31
0.0
  0
LINE
  8
0
 62
     0
 10
78.8197
 20
81.9065
 30
0.0
 11
92.819
 21
81.9065
 31
0.0
  0
LINE
  8
0
 62
     0
 10
92.819
 20
81.9065
 30
0.0
 11
92.819
 21
67.9055
 31
0.0
  0
LINE
  8
0
 62
     0
 10
92.819
 20
67.9055
 30
0.0
 11
78.8197
 21
67.9055
 31
0.0
  0
LINE
  8
0
 62
     0
 10
78.8197
 20
67.9055
 30
0.0
 11
78.8197
 21
81.9065
 31
0.0
  0
LINE
  8
0
 62
     0
 10
59.7697
 20
83.8108
 30
0.0
 11
73.769
 21
83.8108
 31
0.0
  0
LINE
  8
0
 62
     0
 10
73.769
 20
83.8108
 30
0.0
 11
73.769
 21
69.8115
 31
0.0
  0
LINE
  8
0
 62
     0
 10
73.769
 20
69.8115
 30
0.0
 11
59.7697
 21
69.8115
 31
0.0
  0
LINE
  8
0
 62
     0
 10
59.7697
 20
69.8115
 30
0.0
 11
59.7697
 21
83.8108
 31
0.0
  0
LINE
  8
0
 62
     0
 10
2.61965
 20
91.4315
 30
0.0
 11
16.6192
 21
91.4315
 31
0.0
  0
LINE
  8
0
 62
     0
 10
16.6192
 20
91.4315
 30
0.0
 11
16.6192
 21
77.4305
 31
0.0
  0
LINE
  8
0
 62
     0
 10
16.6192
 20
77.4305
 30
0.0
 11
2.61965
 21
77.4305
 31
0.0
  0
LINE
  8
0
 62
     0
 10
2.61965
 20
77.4305
 30
0.0
 11
2.61965
 21
91.4315
 31
0.0
  0
LINE
  8
0
 62
     0
 10
21.6697
 20
93.3358
 30
0.0
 11
35.669
 21
93.3358
 31
0.0
  0
LINE
  8
0
 62
     0
 10
35.669
 20
93.3358
 30
0.0
 11
35.669
 21
79.3365
 31
0.0
  0
LINE
  8
0
 62
     0
 10
35.669
 20
79.3365
 30
0.0
 11
21.6697
 21
79.3365
 31
0.0
  0
LINE
  8
0
 62
     0
 10
21.6697
 20
79.3365
 30
0.0
 11
21.6697
 21
93.3358
 31
0.0
  0
LINE
  8
0
 62
     0
 10
97.8697
 20
99.0505
 30
0.0
 11
111.869
 21
99.0505
 31
0.0
  0
LINE
  8
0
 62
     0
 10
111.869
 20
99.0505
 30
0.0
 11
111.869
 21
85.0512
 31
0.0
  0
LINE
  8
0
 62
     0
 10
111.869
 20
85.0512
 30
0.0
 11
97.8697
 21
85.0512
 31
0.0
  0
LINE
  8
0
 62
     0
 10
97.8697
 20
85.0512
 30
0.0
 11
97.8697
 21
99.0505
 31
0.0
  0
LINE
  8
0
 62
     0
 10
40.7197
 20
100.957
 30
0.0
 11
54.719
 21
100.957
 31
0.0
  0
LINE
  8
0
 62
     0
 10
54.719
 20
100.957
 30
0.0
 11
54.719
 21
86.9555
 31
0.0
  0
LINE
  8
0
 62
     0
 10
54.719
 20
86.9555
 30
0.0
 11
40.7197
 21
86.9555
 31
0.0
  0
LINE
  8
0
 62
     0
 10
40.7197
 20
86.9555
 30
0.0
 11
40.7197
 21
100.957
 31
0.0
  0
LINE
  8
0
 62
     0
 10
78.8197
 20
100.957
 30
0.0
 11
92.819
 21
100.957
 31
0.0
  0
LINE
  8
0
 62
     0
 10
92.819
 20
100.957
 30
0.0
 11
92.819
 21
86.9555
 31
0.0
  0
LINE
  8
0
 62
     0
 10
92.819
 20
86.9555
 30
0.0
 11
78.8197
 21
86.9555
 31
0.0
  0
LINE
  8
0
 62
     0
 10
78.8197
 20
86.9555
 30
0.0
 11
78.8197
 21
100.957
 31
0.0
  0
LINE
  8
0
 62
     0
 10
59.7697
 20
102.861
 30
0.0
 11
73.769
 21
102.861
 31
0.0
  0
LINE
  8
0
 62
     0
 10
73.769
 20
102.861
 30
0.0
 11
73.769
 21
88.8615
 31
0.0
  0
LINE
  8
0
 62
     0
 10
73.769
 20
88.8615
 30
0.0
 11
59.7697
 21
88.8615
 31
0.0
  0
LINE
  8
0
 62
     0
 10
59.7697
 20
88.8615
 30
0.0
 11
59.7697
 21
102.861
 31
0.0
  0
LINE
  8
0
 62
     0
 10
2.61965
 20
110.482
 30
0.0
 11
16.6192
 21
110.482
 31
0.0
  0
LINE
  8
0
 62
     0
 10
16.6192
 20
110.482
 30
0.0
 11
16.6192
 21
96.4805
 31
0.0
  0
LINE
  8
0
 62
     0
 10
16.6192
 20
96.4805
 30
0.0
 11
2.61965
 21
96.4805
 31
0.0
  0
LINE
  8
0
 62
     0
 10
2.61965
 20
96.4805
 30
0.0
 11
2.61965
 21
110.482
 31
0.0
  0
LINE
  8
0
 62
     0
 10
21.6697
 20
112.386
 30
0.0
 11
35.669
 21
112.386
 31
0.0
  0
LINE
  8
0
 62
     0
 10
35.669
 20
112.386
 30
0.0
 11
35.669
 21
98.3865
 31
0.0
  0
LINE
  8
0
 62
     0
 10
35.669
 20
98.3865
 30
0.0
 11
21.6697
 21
98.3865
 31
0.0
  0
LINE
  8
0
 62
     0
 10
21.6697
 20
98.3865
 30
0.0
 11
21.6697
 21
112.386
 31
0.0
  0
LINE
  8
0
 62
     0
 10
97.8697
 20
118.1
 30
0.0
 11
111.869
 21
118.1
 31
0.0
  0
LINE
  8
0
 62
     0
 10
111.869
 20
118.1
 30
0.0
 11
111.869
 21
104.101
 31
0.0
  0
LINE
  8
0
 62
     0
 10
111.869
 20
104.101
 30
0.0
 11
97.8697
 21
104.101
 31
0.0
  0
LINE
  8
0
 62
     0
 10
97.8697
 20
104.101
 30
0.0
 11
97.8697
 21
118.1
 31
0.0
  0
LINE
  8
0
 62
     0
 10
40.7197
 20
120.007
 30
0.0
 11
54.719
 21
120.007
 31
0.0
  0
LINE
  8
0
 62
     0
 10
54.719
 20
120.007
 30
0.0
 11
54.719
 21
106.005
 31
0.0
  0
LINE
  8
0
 62
     0
 10
54.719
 20
106.005
 30
0.0
 11
40.7197
 21
106.005
 31
0.0
  0
LINE
  8
0
 62
     0
 10
40.7197
 20
106.005
 30
0.0
 11
40.7197
 21
120.007
 31
0.0
  0
LINE
  8
0
 62
     0
 10
78.8197
 20
120.007
 30
0.0
 11
92.819
 21
120.007
 31
0.0
  0
LINE
  8
0
 62
     0
 10
92.819
 20
120.007
 30
0.0
 11
92.819
 21
106.005
 31
0.0
  0
LINE
  8
0
 62
     0
 10
92.819
 20
106.005
 30
0.0
 11
78.8197
 21
106.005
 31
0.0
  0
LINE
  8
0
 62
     0
 10
78.8197
 20
106.005
 30
0.0
 11
78.8197
 21
120.007
 31
0.0
  0
LINE
  8
0
 62
     0
 10
59.7697
 20
121.911
 30
0.0
 11
73.769
 21
121.911
 31
0.0
  0
LINE
  8
0
 62
     0
 10
73.769
 20
121.911
 30
0.0
 11
73.769
 21
107.912
 31
0.0
  0
LINE
  8
0
 62
     0
 10
73.769
 20
107.912
 30
0.0
 11
59.7697
 21
107.912
 31
0.0
  0
LINE
  8
0
 62
     0
 10
59.7697
 20
107.912
 30
0.0
 11
59.7697
 21
121.911
 31
0.0
  0
ENDSEC
  0
EOF
