  0
SECTION
  2
HEADER
  9
$ACADVER
  1
AC1009
  9
$FILLMODE
 70
 0
  9
$SPLFRAME
 70
 1
  9
$EXTMIN
 10
0
 20
0
 30
0.0
  9
$EXTMAX
 10
1058.33
 20
1058.33
 30
0.0
  0
ENDSEC
  0
SECTION
  2
TABLES
  0
TABLE
  2
LAYER
 70
1
  0
LAYER
  2
0
 70
     0
 62
     7
  6
CONTINUOUS
  0
ENDTAB
  0
ENDSEC
  0
SECTION
  2
ENTITIES
  0
LINE
  8
0
 62
     0
 10
0.0950846
 20
107.502
 30
0.0
 11
134.969
 21
107.502
 31
0.0
  0
LINE
  8
0
 62
     0
 10
134.969
 20
107.502
 30
0.0
 11
134.969
 21
0.137804
 31
0.0
  0
LINE
  8
0
 62
     0
 10
134.969
 20
0.137804
 30
0.0
 11
0.0950846
 21
0.137804
 31
0.0
  0
LINE
  8
0
 62
     0
 10
0.0950846
 20
0.137804
 30
0.0
 11
0.0950846
 21
107.502
 31
0.0
  0
LINE
  8
0
 62
     0
 10
110.783
 20
13.9333
 30
0.0
 11
123.366
 21
7.79558
 31
0.0
  0
LINE
  8
0
 62
     0
 10
123.366
 20
7.79558
 30
0.0
 11
129.504
 21
20.3784
 31
0.0
  0
LINE
  8
0
 62
     0
 10
129.504
 20
20.3784
 30
0.0
 11
116.921
 21
26.5162
 31
0.0
  0
LINE
  8
0
 62
     0
 10
116.921
 20
26.5162
 30
0.0
 11
110.783
 21
13.9333
 31
0.0
  0
LINE
  8
0
 62
     0
 10
88.3447
 20
24.9673
 30
0.0
 11
102.344
 21
24.9673
 31
0.0
  0
LINE
  8
0
 62
     0
 10
102.344
 20
24.9673
 30
0.0
 11
102.344
 21
10.9678
 31
0.0
  0
LINE
  8
0
 62
     0
 10
102.344
 20
10.9678
 30
0.0
 11
88.3447
 21
10.9678
 31
0.0
  0
LINE
  8
0
 62
     0
 10
88.3447
 20
10.9678
 30
0.0
 11
88.3447
 21
24.9673
 31
0.0
  0
LINE
  8
0
 62
     0
 10
50.2447
 20
26.8731
 30
0.0
 11
64.244
 21
26.8731
 31
0.0
  0
LINE
  8
0
 62
     0
 10
64.244
 20
26.8731
 30
0.0
 11
64.244
 21
12.8723
 31
0.0
  0
LINE
  8
0
 62
     0
 10
64.244
 20
12.8723
 30
0.0
 11
50.2447
 21
12.8723
 31
0.0
  0
LINE
  8
0
 62
     0
 10
50.2447
 20
12.8723
 30
0.0
 11
50.2447
 21
26.8731
 31
0.0
  0
LINE
  8
0
 62
     0
 10
69.2947
 20
26.8731
 30
0.0
 11
83.294
 21
26.8731
 31
0.0
  0
LINE
  8
0
 62
     0
 10
83.294
 20
26.8731
 30
0.0
 11
83.294
 21
12.8723
 31
0.0
  0
LINE
  8
0
 62
     0
 10
83.294
 20
12.8723
 30
0.0
 11
69.2947
 21
12.8723
 31
0.0
  0
LINE
  8
0
 62
     0
 10
69.2947
 20
12.8723
 30
0.0
 11
69.2947
 21
26.8731
 31
0.0
  0
LINE
  8
0
 62
     0
 10
2.61965
 20
36.3982
 30
0.0
 11
16.6192
 21
36.3982
 31
0.0
  0
LINE
  8
0
 62
     0
 10
16.6192
 20
36.3982
 30
0.0
 11
16.6192
 21
22.3973
 31
0.0
  0
LINE
  8
0
 62
     0
 10
16.6192
 20
22.3973
 30
0.0
 11
2.61965
 21
22.3973
 31
0.0
  0
LINE
  8
0
 62
     0
 10
2.61965
 20
22.3973
 30
0.0
 11
2.61965
 21
36.3982
 31
0.0
  0
LINE
  8
0
 62
     0
 10
21.6697
 20
38.3025
 30
0.0
 11
35.669
 21
38.3025
 31
0.0
  0
LINE
  8
0
 62
     0
 10
35.669
 20
38.3025
 30
0.0
 11
35.669
 21
24.3031
 31
0.0
  0
LINE
  8
0
 62
     0
 10
35.669
 20
24.3031
 30
0.0
 11
21.6697
 21
24.3031
 31
0.0
  0
LINE
  8
0
 62
     0
 10
21.6697
 20
24.3031
 30
0.0
 11
21.6697
 21
38.3025
 31
0.0
  0
LINE
  8
0
 62
     0
 10
97.8697
 20
44.0171
 30
0.0
 11
111.869
 21
44.0171
 31
0.0
  0
LINE
  8
0
 62
     0
 10
111.869
 20
44.0171
 30
0.0
 11
111.869
 21
30.0178
 31
0.0
  0
LINE
  8
0
 62
     0
 10
111.869
 20
30.0178
 30
0.0
 11
97.8697
 21
30.0178
 31
0.0
  0
LINE
  8
0
 62
     0
 10
97.8697
 20
30.0178
 30
0.0
 11
97.8697
 21
44.0171
 31
0.0
  0
LINE
  8
0
 62
     0
 10
40.7197
 20
45.9232
 30
0.0
 11
54.719
 21
45.9232
 31
0.0
  0
LINE
  8
0
 62
     0
 10
54.719
 20
45.9232
 30
0.0
 11
54.719
 21
31.9223
 31
0.0
  0
LINE
  8
0
 62
     0
 10
54.719
 20
31.9223
 30
0.0
 11
40.7197
 21
31.9223
 31
0.0
  0
LINE
  8
0
 62
     0
 10
40.7197
 20
31.9223
 30
0.0
 11
40.7197
 21
45.9232
 31
0.0
  0
LINE
  8
0
 62
     0
 10
78.8197
 20
45.9232
 30
0.0
 11
92.819
 21
45.9232
 31
0.0
  0
LINE
  8
0
 62
     0
 10
92.819
 20
45.9232
 30
0.0
 11
92.819
 21
31.9223
 31
0.0
  0
LINE
  8
0
 62
     0
 10
92.819
 20
31.9223
 30
0.0
 11
78.8197
 21
31.9223
 31
0.0
  0
LINE
  8
0
 62
     0
 10
78.8197
 20
31.9223
 30
0.0
 11
78.8197
 21
45.9232
 31
0.0
  0
LINE
  8
0
 62
     0
 10
59.7697
 20
47.8275
 30
0.0
 11
73.769
 21
47.8275
 31
0.0
  0
LINE
  8
0
 62
     0
 10
73.769
 20
47.8275
 30
0.0
 11
73.769
 21
33.8281
 31
0.0
  0
LINE
  8
0
 62
     0
 10
73.769
 20
33.8281
 30
0.0
 11
59.7697
 21
33.8281
 31
0.0
  0
LINE
  8
0
 62
     0
 10
59.7697
 20
33.8281
 30
0.0
 11
59.7697
 21
47.8275
 31
0.0
  0
LINE
  8
0
 62
     0
 10
116.92
 20
53.5421
 30
0.0
 11
130.919
 21
53.5421
 31
0.0
  0
LINE
  8
0
 62
     0
 10
130.919
 20
53.5421
 30
0.0
 11
130.919
 21
39.5429
 31
0.0
  0
LINE
  8
0
 62
     0
 10
130.919
 20
39.5429
 30
0.0
 11
116.92
 21
39.5429
 31
0.0
  0
LINE
  8
0
 62
     0
 10
116.92
 20
39.5429
 30
0.0
 11
116.92
 21
53.5421
 31
0.0
  0
LINE
  8
0
 62
     0
 10
2.61965
 20
55.4482
 30
0.0
 11
16.6192
 21
55.4482
 31
0.0
  0
LINE
  8
0
 62
     0
 10
16.6192
 20
55.4482
 30
0.0
 11
16.6192
 21
41.4472
 31
0.0
  0
LINE
  8
0
 62
     0
 10
16.6192
 20
41.4472
 30
0.0
 11
2.61965
 21
41.4472
 31
0.0
  0
LINE
  8
0
 62
     0
 10
2.61965
 20
41.4472
 30
0.0
 11
2.61965
 21
55.4482
 31
0.0
  0
LINE
  8
0
 62
     0
 10
21.6697
 20
57.3525
 30
0.0
 11
35.669
 21
57.3525
 31
0.0
  0
LINE
  8
0
 62
     0
 10
35.669
 20
57.3525
 30
0.0
 11
35.669
 21
43.3532
 31
0.0
  0
LINE
  8
0
 62
     0
 10
35.669
 20
43.3532
 30
0.0
 11
21.6697
 21
43.3532
 31
0.0
  0
LINE
  8
0
 62
     0
 10
21.6697
 20
43.3532
 30
0.0
 11
21.6697
 21
57.3525
 31
0.0
  0
LINE
  8
0
 62
     0
 10
97.8697
 20
63.0671
 30
0.0
 11
111.869
 21
63.0671
 31
0.0
  0
LINE
  8
0
 62
     0
 10
111.869
 20
63.0671
 30
0.0
 11
111.869
 21
49.0679
 31
0.0
  0
LINE
  8
0
 62
     0
 10
111.869
 20
49.0679
 30
0.0
 11
97.8697
 21
49.0679
 31
0.0
  0
LINE
  8
0
 62
     0
 10
97.8697
 20
49.0679
 30
0.0
 11
97.8697
 21
63.0671
 31
0.0
  0
LINE
  8
0
 62
     0
 10
40.7197
 20
64.9732
 30
0.0
 11
54.719
 21
64.9732
 31
0.0
  0
LINE
  8
0
 62
     0
 10
54.719
 20
64.9732
 30
0.0
 11
54.719
 21
50.9722
 31
0.0
  0
LINE
  8
0
 62
     0
 10
54.719
 20
50.9722
 30
0.0
 11
40.7197
 21
50.9722
 31
0.0
  0
LINE
  8
0
 62
     0
 10
40.7197
 20
50.9722
 30
0.0
 11
40.7197
 21
64.9732
 31
0.0
  0
LINE
  8
0
 62
     0
 10
78.8197
 20
64.9732
 30
0.0
 11
92.819
 21
64.9732
 31
0.0
  0
LINE
  8
0
 62
     0
 10
92.819
 20
64.9732
 30
0.0
 11
92.819
 21
50.9722
 31
0.0
  0
LINE
  8
0
 62
     0
 10
92.819
 20
50.9722
 30
0.0
 11
78.8197
 21
50.9722
 31
0.0
  0
LINE
  8
0
 62
     0
 10
78.8197
 20
50.9722
 30
0.0
 11
78.8197
 21
64.9732
 31
0.0
  0
LINE
  8
0
 62
     0
 10
59.7697
 20
66.8775
 30
0.0
 11
73.769
 21
66.8775
 31
0.0
  0
LINE
  8
0
 62
     0
 10
73.769
 20
66.8775
 30
0.0
 11
73.769
 21
52.8782
 31
0.0
  0
LINE
  8
0
 62
     0
 10
73.769
 20
52.8782
 30
0.0
 11
59.7697
 21
52.8782
 31
0.0
  0
LINE
  8
0
 62
     0
 10
59.7697
 20
52.8782
 30
0.0
 11
59.7697
 21
66.8775
 31
0.0
  0
LINE
  8
0
 62
     0
 10
2.61965
 20
74.4982
 30
0.0
 11
16.6192
 21
74.4982
 31
0.0
  0
LINE
  8
0
 62
     0
 10
16.6192
 20
74.4982
 30
0.0
 11
16.6192
 21
60.4972
 31
0.0
  0
LINE
  8
0
 62
     0
 10
16.6192
 20
60.4972
 30
0.0
 11
2.61965
 21
60.4972
 31
0.0
  0
LINE
  8
0
 62
     0
 10
2.61965
 20
60.4972
 30
0.0
 11
2.61965
 21
74.4982
 31
0.0
  0
LINE
  8
0
 62
     0
 10
21.6697
 20
76.4025
 30
0.0
 11
35.669
 21
76.4025
 31
0.0
  0
LINE
  8
0
 62
     0
 10
35.669
 20
76.4025
 30
0.0
 11
35.669
 21
62.4032
 31
0.0
  0
LINE
  8
0
 62
     0
 10
35.669
 20
62.4032
 30
0.0
 11
21.6697
 21
62.4032
 31
0.0
  0
LINE
  8
0
 62
     0
 10
21.6697
 20
62.4032
 30
0.0
 11
21.6697
 21
76.4025
 31
0.0
  0
LINE
  8
0
 62
     0
 10
97.8697
 20
82.1171
 30
0.0
 11
111.869
 21
82.1171
 31
0.0
  0
LINE
  8
0
 62
     0
 10
111.869
 20
82.1171
 30
0.0
 11
111.869
 21
68.1179
 31
0.0
  0
LINE
  8
0
 62
     0
 10
111.869
 20
68.1179
 30
0.0
 11
97.8697
 21
68.1179
 31
0.0
  0
LINE
  8
0
 62
     0
 10
97.8697
 20
68.1179
 30
0.0
 11
97.8697
 21
82.1171
 31
0.0
  0
LINE
  8
0
 62
     0
 10
40.7197
 20
84.0232
 30
0.0
 11
54.719
 21
84.0232
 31
0.0
  0
LINE
  8
0
 62
     0
 10
54.719
 20
84.0232
 30
0.0
 11
54.719
 21
70.0222
 31
0.0
  0
LINE
  8
0
 62
     0
 10
54.719
 20
70.0222
 30
0.0
 11
40.7197
 21
70.0222
 31
0.0
  0
LINE
  8
0
 62
     0
 10
40.7197
 20
70.0222
 30
0.0
 11
40.7197
 21
84.0232
 31
0.0
  0
LINE
  8
0
 62
     0
 10
78.8197
 20
84.0232
 30
0.0
 11
92.819
 21
84.0232
 31
0.0
  0
LINE
  8
0
 62
     0
 10
92.819
 20
84.0232
 30
0.0
 11
92.819
 21
70.0222
 31
0.0
  0
LINE
  8
0
 62
     0
 10
92.819
 20
70.0222
 30
0.0
 11
78.8197
 21
70.0222
 31
0.0
  0
LINE
  8
0
 62
     0
 10
78.8197
 20
70.0222
 30
0.0
 11
78.8197
 21
84.0232
 31
0.0
  0
LINE
  8
0
 62
     0
 10
59.7697
 20
85.9275
 30
0.0
 11
73.769
 21
85.9275
 31
0.0
  0
LINE
  8
0
 62
     0
 10
73.769
 20
85.9275
 30
0.0
 11
73.769
 21
71.9282
 31
0.0
  0
LINE
  8
0
 62
     0
 10
73.769
 20
71.9282
 30
0.0
 11
59.7697
 21
71.9282
 31
0.0
  0
LINE
  8
0
 62
     0
 10
59.7697
 20
71.9282
 30
0.0
 11
59.7697
 21
85.9275
 31
0.0
  0
LINE
  8
0
 62
     0
 10
2.61965
 20
93.5482
 30
0.0
 11
16.6192
 21
93.5482
 31
0.0
  0
LINE
  8
0
 62
     0
 10
16.6192
 20
93.5482
 30
0.0
 11
16.6192
 21
79.5472
 31
0.0
  0
LINE
  8
0
 62
     0
 10
16.6192
 20
79.5472
 30
0.0
 11
2.61965
 21
79.5472
 31
0.0
  0
LINE
  8
0
 62
     0
 10
2.61965
 20
79.5472
 30
0.0
 11
2.61965
 21
93.5482
 31
0.0
  0
LINE
  8
0
 62
     0
 10
21.6697
 20
95.4525
 30
0.0
 11
35.669
 21
95.4525
 31
0.0
  0
LINE
  8
0
 62
     0
 10
35.669
 20
95.4525
 30
0.0
 11
35.669
 21
81.4532
 31
0.0
  0
LINE
  8
0
 62
     0
 10
35.669
 20
81.4532
 30
0.0
 11
21.6697
 21
81.4532
 31
0.0
  0
LINE
  8
0
 62
     0
 10
21.6697
 20
81.4532
 30
0.0
 11
21.6697
 21
95.4525
 31
0.0
  0
LINE
  8
0
 62
     0
 10
97.8697
 20
101.167
 30
0.0
 11
111.869
 21
101.167
 31
0.0
  0
LINE
  8
0
 62
     0
 10
111.869
 20
101.167
 30
0.0
 11
111.869
 21
87.1679
 31
0.0
  0
LINE
  8
0
 62
     0
 10
111.869
 20
87.1679
 30
0.0
 11
97.8697
 21
87.1679
 31
0.0
  0
LINE
  8
0
 62
     0
 10
97.8697
 20
87.1679
 30
0.0
 11
97.8697
 21
101.167
 31
0.0
  0
LINE
  8
0
 62
     0
 10
40.7197
 20
103.073
 30
0.0
 11
54.719
 21
103.073
 31
0.0
  0
LINE
  8
0
 62
     0
 10
54.719
 20
103.073
 30
0.0
 11
54.719
 21
89.0722
 31
0.0
  0
LINE
  8
0
 62
     0
 10
54.719
 20
89.0722
 30
0.0
 11
40.7197
 21
89.0722
 31
0.0
  0
LINE
  8
0
 62
     0
 10
40.7197
 20
89.0722
 30
0.0
 11
40.7197
 21
103.073
 31
0.0
  0
LINE
  8
0
 62
     0
 10
78.8197
 20
103.073
 30
0.0
 11
92.819
 21
103.073
 31
0.0
  0
LINE
  8
0
 62
     0
 10
92.819
 20
103.073
 30
0.0
 11
92.819
 21
89.0722
 31
0.0
  0
LINE
  8
0
 62
     0
 10
92.819
 20
89.0722
 30
0.0
 11
78.8197
 21
89.0722
 31
0.0
  0
LINE
  8
0
 62
     0
 10
78.8197
 20
89.0722
 30
0.0
 11
78.8197
 21
103.073
 31
0.0
  0
LINE
  8
0
 62
     0
 10
59.7697
 20
104.977
 30
0.0
 11
73.769
 21
104.977
 31
0.0
  0
LINE
  8
0
 62
     0
 10
73.769
 20
104.977
 30
0.0
 11
73.769
 21
90.9782
 31
0.0
  0
LINE
  8
0
 62
     0
 10
73.769
 20
90.9782
 30
0.0
 11
59.7697
 21
90.9782
 31
0.0
  0
LINE
  8
0
 62
     0
 10
59.7697
 20
90.9782
 30
0.0
 11
59.7697
 21
104.977
 31
0.0
  0
ENDSEC
  0
EOF
